<?xml version="1.0" encoding="UTF-8"?>
<svg width="800" height="600" xmlns="http://www.w3.org/2000/svg">
  <!-- Background pattern -->
  <defs>
    <pattern id="smallGrid" width="20" height="20" patternUnits="userSpaceOnUse">
      <path d="M 20 0 L 0 0 0 20" fill="none" stroke="#000000" stroke-width="0.5" opacity="0.05"/>
    </pattern>
  </defs>
  <rect width="100%" height="100%" fill="url(#smallGrid)" />
  
  <!-- Analytics bars -->
  <g transform="translate(100, 300)">
    <rect x="0" y="-50" width="40" height="50" fill="#000000" opacity="0.2"/>
    <rect x="60" y="-120" width="40" height="120" fill="#000000" opacity="0.3"/>
    <rect x="120" y="-80" width="40" height="80" fill="#000000" opacity="0.2"/>
    <rect x="180" y="-180" width="40" height="180" fill="#000000" opacity="0.3"/>
    <rect x="240" y="-100" width="40" height="100" fill="#000000" opacity="0.2"/>
    <rect x="300" y="-150" width="40" height="150" fill="#000000" opacity="0.3"/>
    <rect x="360" y="-200" width="40" height="200" fill="#000000" opacity="0.2"/>
    
    <!-- Line graph -->
    <path d="M 20 -70 L 80 -140 L 140 -100 L 200 -200 L 260 -120 L 320 -170 L 380 -220" 
          fill="none" stroke="#000000" stroke-width="3" opacity="0.3"/>
    
    <!-- Data points -->
    <circle cx="20" cy="-70" r="5" fill="#000000"/>
    <circle cx="80" cy="-140" r="5" fill="#000000"/>
    <circle cx="140" cy="-100" r="5" fill="#000000"/>
    <circle cx="200" cy="-200" r="5" fill="#000000"/>
    <circle cx="260" cy="-120" r="5" fill="#000000"/>
    <circle cx="320" cy="-170" r="5" fill="#000000"/>
    <circle cx="380" cy="-220" r="5" fill="#000000"/>
  </g>
  
  <!-- Connected dots in background -->
  <g opacity="0.1">
    <circle cx="600" cy="100" r="4" fill="#000000"/>
    <circle cx="650" cy="150" r="4" fill="#000000"/>
    <circle cx="680" cy="80" r="4" fill="#000000"/>
    <circle cx="720" cy="130" r="4" fill="#000000"/>
    <circle cx="630" cy="180" r="4" fill="#000000"/>
    
    <line x1="600" y1="100" x2="650" y2="150" stroke="#000000" stroke-width="1"/>
    <line x1="650" y1="150" x2="680" y2="80" stroke="#000000" stroke-width="1"/>
    <line x1="680" y1="80" x2="720" y2="130" stroke="#000000" stroke-width="1"/>
    <line x1="720" y1="130" x2="630" y2="180" stroke="#000000" stroke-width="1"/>
    <line x1="630" y1="180" x2="600" y2="100" stroke="#000000" stroke-width="1"/>
  </g>
</svg>