<svg xmlns="http://www.w3.org/2000/svg" width="800" height="600"><defs><pattern id="smallGrid" width="20" height="20" patternUnits="userSpaceOnUse"><path fill="none" stroke="#000" stroke-width=".5" d="M 20 0 L 0 0 0 20" opacity=".05"/></pattern></defs><rect width="100%" height="100%" fill="url(#smallGrid)"/><g transform="translate(100, 300)"><rect width="40" height="50" x="0" y="-50" fill="#000" opacity=".2"/><rect width="40" height="120" x="60" y="-120" fill="#000" opacity=".3"/><rect width="40" height="80" x="120" y="-80" fill="#000" opacity=".2"/><rect width="40" height="180" x="180" y="-180" fill="#000" opacity=".3"/><rect width="40" height="100" x="240" y="-100" fill="#000" opacity=".2"/><rect width="40" height="150" x="300" y="-150" fill="#000" opacity=".3"/><rect width="40" height="200" x="360" y="-200" fill="#000" opacity=".2"/><path fill="none" stroke="#000" stroke-width="3" d="M 20 -70 L 80 -140 L 140 -100 L 200 -200 L 260 -120 L 320 -170 L 380 -220" opacity=".3"/><circle cx="20" cy="-70" r="5" fill="#000"/><circle cx="80" cy="-140" r="5" fill="#000"/><circle cx="140" cy="-100" r="5" fill="#000"/><circle cx="200" cy="-200" r="5" fill="#000"/><circle cx="260" cy="-120" r="5" fill="#000"/><circle cx="320" cy="-170" r="5" fill="#000"/><circle cx="380" cy="-220" r="5" fill="#000"/></g><g opacity=".1"><circle cx="600" cy="100" r="4" fill="#000"/><circle cx="650" cy="150" r="4" fill="#000"/><circle cx="680" cy="80" r="4" fill="#000"/><circle cx="720" cy="130" r="4" fill="#000"/><circle cx="630" cy="180" r="4" fill="#000"/><line x1="600" x2="650" y1="100" y2="150" stroke="#000" stroke-width="1"/><line x1="650" x2="680" y1="150" y2="80" stroke="#000" stroke-width="1"/><line x1="680" x2="720" y1="80" y2="130" stroke="#000" stroke-width="1"/><line x1="720" x2="630" y1="130" y2="180" stroke="#000" stroke-width="1"/><line x1="630" x2="600" y1="180" y2="100" stroke="#000" stroke-width="1"/></g></svg>