<svg xmlns="http://www.w3.org/2000/svg" width="600" height="400"><rect width="100" height="60" x="50" y="170" fill="#fff" stroke="#000" stroke-width="2" rx="10"/><text x="100" y="205" fill="#000" font-family="Arial" font-size="14" text-anchor="middle">Data Sources</text><rect width="100" height="60" x="250" y="100" fill="#fff" stroke="#000" stroke-width="2" rx="10"/><text x="300" y="135" fill="#000" font-family="Arial" font-size="14" text-anchor="middle">Collection</text><rect width="100" height="60" x="250" y="240" fill="#fff" stroke="#000" stroke-width="2" rx="10"/><text x="300" y="275" fill="#000" font-family="Arial" font-size="14" text-anchor="middle">Processing</text><rect width="100" height="60" x="450" y="170" fill="#fff" stroke="#000" stroke-width="2" rx="10"/><text x="500" y="205" fill="#000" font-family="Arial" font-size="14" text-anchor="middle">Analytics</text><path fill="none" stroke="#000" stroke-width="2" marker-end="url(#arrowhead)" d="M 150 190 L 230 130"/><path fill="none" stroke="#000" stroke-width="2" marker-end="url(#arrowhead)" d="M 150 210 L 230 270"/><path fill="none" stroke="#000" stroke-width="2" marker-end="url(#arrowhead)" d="M 350 130 L 430 180"/><path fill="none" stroke="#000" stroke-width="2" marker-end="url(#arrowhead)" d="M 350 270 L 430 220"/><defs><marker id="arrowhead" markerHeight="7" markerWidth="10" orient="auto" refX="9" refY="3.5"><polygon fill="#000" points="0 0 10 3.5 0 7"/></marker></defs><g opacity=".7" transform="translate(80, 150)"><rect width="15" height="10" x="0" y="0" fill="#000"/><rect width="15" height="10" x="0" y="15" fill="#000"/><rect width="15" height="10" x="0" y="30" fill="#000"/></g><g opacity=".7"><path fill="#000" d="M0,0 L15,0 L15,15 L0,15 Z M5,5 L5,10 L10,10 L10,5 Z" transform="translate(280, 80)"/></g><g opacity=".7"><path fill="#000" d="M0,0 C5,-5 10,-5 15,0 C20,5 15,15 7.5,15 C0,15 -5,5 0,0 Z" transform="translate(280, 220)"/></g><g opacity=".7"><path fill="none" stroke="#000" stroke-width="2" d="M0,15 L5,0 L10,10 L15,5" transform="translate(480, 150)"/></g></svg>