<svg xmlns="http://www.w3.org/2000/svg" width="100%" height="100%" viewBox="0 0 800 250"><path fill="#fff" stroke="#3E3232" stroke-width="8" d="M200,25 L75,125 L200,225 L300,225 L425,125 L300,25 Z"/><path fill="#3E3232" d="M160,80 L160,110 L120,110 L120,140 L150,140 L150,170 L120,170 L120,200 L160,200 L160,230 L90,230 L90,80 Z"/><path fill="#3E3232" d="M170,80 L250,80 L250,110 L200,110 L200,140 L240,140 L240,170 L200,170 L200,200 L250,200 L250,230 L170,230 Z"/><text x="455" y="165" fill="#3E3232" font-family="Arial, sans-serif" font-size="80" font-weight="bold">EXCITE SERVICES</text></svg>