<svg xmlns="http://www.w3.org/2000/svg" width="800" height="800"><defs><pattern id="grid" width="100" height="100" patternUnits="userSpaceOnUse"><path fill="none" stroke="#000" stroke-width="1" d="M 100 0 L 0 0 0 100" opacity=".1"/></pattern><pattern id="node" width="25" height="25" patternUnits="userSpaceOnUse"><circle cx="12.5" cy="12.5" r="1.5" fill="#000" opacity=".2"/></pattern></defs><rect width="100%" height="100%" fill="url(#grid)"/><rect width="100%" height="100%" fill="url(#node)"/><g opacity=".15"><line x1="0" x2="800" y1="200" y2="200" stroke="#000" stroke-width="1"/><line x1="0" x2="800" y1="400" y2="400" stroke="#000" stroke-width="1"/><line x1="0" x2="800" y1="600" y2="600" stroke="#000" stroke-width="1"/><line x1="200" x2="200" y1="0" y2="800" stroke="#000" stroke-width="1"/><line x1="400" x2="400" y1="0" y2="800" stroke="#000" stroke-width="1"/><line x1="600" x2="600" y1="0" y2="800" stroke="#000" stroke-width="1"/><line x1="0" x2="800" y1="0" y2="800" stroke="#000" stroke-width="1"/><line x1="800" x2="0" y1="0" y2="800" stroke="#000" stroke-width="1"/></g><g><circle cx="200" cy="200" r="4" fill="#000" opacity=".2"/><circle cx="200" cy="400" r="4" fill="#000" opacity=".2"/><circle cx="200" cy="600" r="4" fill="#000" opacity=".2"/><circle cx="400" cy="200" r="4" fill="#000" opacity=".2"/><circle cx="400" cy="400" r="4" fill="#000" opacity=".2"/><circle cx="400" cy="600" r="4" fill="#000" opacity=".2"/><circle cx="600" cy="200" r="4" fill="#000" opacity=".2"/><circle cx="600" cy="400" r="4" fill="#000" opacity=".2"/><circle cx="600" cy="600" r="4" fill="#000" opacity=".2"/></g></svg>