<?xml version="1.0" encoding="UTF-8"?>
<svg width="800" height="800" xmlns="http://www.w3.org/2000/svg">
  <!-- Tech Grid Pattern -->
  <defs>
    <!-- Main grid pattern -->
    <pattern id="grid" width="100" height="100" patternUnits="userSpaceOnUse">
      <path d="M 100 0 L 0 0 0 100" fill="none" stroke="#000000" stroke-width="1" opacity="0.1"/>
    </pattern>
    
    <!-- Data node pattern -->
    <pattern id="node" width="25" height="25" patternUnits="userSpaceOnUse">
      <circle cx="12.5" cy="12.5" r="1.5" fill="#000000" opacity="0.2"/>
    </pattern>
  </defs>
  
  <!-- Background grid -->
  <rect width="100%" height="100%" fill="url(#grid)"/>
  
  <!-- Data nodes layer -->
  <rect width="100%" height="100%" fill="url(#node)"/>
  
  <!-- Connection lines -->
  <g opacity="0.15">
    <!-- Horizontal lines -->
    <line x1="0" y1="200" x2="800" y2="200" stroke="#000000" stroke-width="1"/>
    <line x1="0" y1="400" x2="800" y2="400" stroke="#000000" stroke-width="1"/>
    <line x1="0" y1="600" x2="800" y2="600" stroke="#000000" stroke-width="1"/>
    
    <!-- Vertical lines -->
    <line x1="200" y1="0" x2="200" y2="800" stroke="#000000" stroke-width="1"/>
    <line x1="400" y1="0" x2="400" y2="800" stroke="#000000" stroke-width="1"/>
    <line x1="600" y1="0" x2="600" y2="800" stroke="#000000" stroke-width="1"/>
    
    <!-- Diagonal lines -->
    <line x1="0" y1="0" x2="800" y2="800" stroke="#000000" stroke-width="1"/>
    <line x1="800" y1="0" x2="0" y2="800" stroke="#000000" stroke-width="1"/>
  </g>
  
  <!-- Major intersection points -->
  <g>
    <circle cx="200" cy="200" r="4" fill="#000000" opacity="0.2"/>
    <circle cx="200" cy="400" r="4" fill="#000000" opacity="0.2"/>
    <circle cx="200" cy="600" r="4" fill="#000000" opacity="0.2"/>
    <circle cx="400" cy="200" r="4" fill="#000000" opacity="0.2"/>
    <circle cx="400" cy="400" r="4" fill="#000000" opacity="0.2"/>
    <circle cx="400" cy="600" r="4" fill="#000000" opacity="0.2"/>
    <circle cx="600" cy="200" r="4" fill="#000000" opacity="0.2"/>
    <circle cx="600" cy="400" r="4" fill="#000000" opacity="0.2"/>
    <circle cx="600" cy="600" r="4" fill="#000000" opacity="0.2"/>
  </g>
</svg>